<svg width="469" height="997" viewBox="0 0 469 997" fill="none" xmlns="http://www.w3.org/2000/svg">
<path id="2" d="M388.424 30.9562C388.424 30.9562 71.3556 3.94335 32.5162 237.074C22.715 295.905 42.3452 345.398 77.5168 383.875M77.5168 383.875C181.719 497.869 422.335 515.165 438.147 392.111C456.332 250.586 178.928 221.454 77.5168 383.875ZM77.5168 383.875C60.9901 410.344 49.1375 441.901 44.0001 478.887C30.2182 578.11 73.0692 653.177 133.01 701.47M133.01 701.47C232.518 781.642 379.123 788.026 391.905 708.639C410.004 596.23 199.63 583.6 133.01 701.47ZM133.01 701.47C124.239 716.988 117.96 734.769 115.021 754.881C89.7658 927.758 313.041 967 313.041 967" stroke="white" stroke-width="60"/>
</svg>
